# AST/ASF file generated using VICON BodyLanguage
# -----------------------------------------------
:version 1.10
:name VICON
:units
  mass 1.0
  length 0.45
  angle deg
:documentation
   .ast/.asf automatically generated from VICON data using
   VICON BodyBuilder and BodyLanguage model FoxedUp or BRILLIANT.MOD
:root
   order TX TY TZ RX RY RZ
   axis XYZ
   position 0 0 0  
   orientation 0 0 0 
:bonedata
  begin
     id 1 
     name lhipjoint
     direction 0.521452 -0.77106 0.36545 
     length 2.0933 
     axis 0 0 0  XYZ
  end
  begin
     id 2 
     name lfemur
     direction 0.34202 -0.939693 0  
     length 6.83441  
     axis 0 0 20  XYZ
    dof rx ry rz
    limits (-160.0 20.0)
           (-70.0 70.0)
           (-60.0 70.0)
  end
  begin
     id 3 
     name ltibia
     direction 0.34202 -0.939693 0   
     length 7.28749   
     axis 0 0 20   XYZ
    dof rx
    limits (-10.0 170.0)
  end
  begin
     id 4 
     name lfoot
     direction 0.100608 -0.276418 0.955757   
     length 1.52195   
     axis -90 7.62852e-016 20   XYZ
    dof rx rz
    limits (-45.0 90.0)
           (-70.0 20.0)
  end
  begin
     id 5 
     name ltoes
     direction 1.53558e-011 -4.21907e-011 1   
     length 0.770459   
     axis -90 7.62852e-016 20   XYZ
    dof rx
    limits (-90.0 20.0)
  end
  begin
     id 6 
     name rhipjoint
     direction -0.488071 -0.788702 0.373812   
     length 2.04648  
     axis 0 0 0  XYZ 
  end
  begin
     id 7 
     name rfemur
     direction -0.34202 -0.939693 0   
     length 6.92583   
     axis 0 0 -20   XYZ
    dof rx ry rz
    limits (-160.0 20.0)
           (-70.0 70.0)
           (-70.0 60.0)
  end
  begin
     id 8 
     name rtibia
     direction -0.34202 -0.939693 0   
     length 7.41043   
     axis 0 0 -20   XYZ
    dof rx
    limits (-10.0 170.0)
 end
 begin
     id 9 
     name rfoot
     direction -0.0784433 -0.215521 0.973343   
     length 1.67708  
     axis -90 -7.62852e-016 -20   XYZ
    dof rx rz
    limits (-45.0 90.0)
           (-20.0 70.0)
  end
  begin
     id 10 
     name rtoes
     direction -1.53551e-011 -4.21842e-011 1   
     length 0.849787   
     axis -90 -7.62852e-016 -20   XYZ
    dof rx
    limits (-90.0 20.0)
  end
  begin
     id 11 
     name lowerback
     direction -0.0122332 0.997575 -0.0685192   
     length 1.98724   
     axis 0 0 0   XYZ
    dof rx ry rz
    limits (-20.0 45.0)
           (-30.0 30.0)
           (-30.0 30.0)
  end
  begin
     id 12 
     name upperback
     direction 0.0182347 0.999724 -0.0148421   
     length 1.99029   
     axis 0 0 0   XYZ
    dof rx ry rz
    limits (-20.0 45.0)
           (-30.0 30.0)
           (-30.0 30.0)
  end
  begin
     id 13 
     name thorax
     direction 0.0242908 0.99956 0.0170184   
     length 1.99573   
     axis 0 0 0   XYZ
    dof rx ry rz
    limits (-20.0 45.0)
           (-30.0 30.0)
           (-30.0 30.0)
  end
  begin
     id 14 
     name lowerneck
     direction 0.0654488 0.985533 0.156338   
     length 1.4285   
     axis 0 0 0   XYZ
    dof rx ry rz
    limits (-20.0 45.0)
           (-30.0 30.0)
           (-30.0 30.0)
  end
  begin
     id 15 
     name upperneck
     direction -0.02953 0.998556 -0.0448842   
     length 1.44709   
     axis 0 0 0   XYZ
    dof rx ry rz
    limits (-20.0 45.0)
           (-30.0 30.0)
           (-30.0 30.0)
  end
  begin
     id 16
     name head
     direction -0.0155588 0.999386 -0.0314063  
     length 1.44689  
     axis 0 0 0   XYZ
    dof rx ry rz
    limits (-20.0 45.0)
           (-30.0 30.0)
           (-30.0 30.0)
  end
  begin
     id 17 
     name lclavicle
     direction 0.968229 0.236071 -0.0824755  
     length 3.60593  
     axis 0 0 0   XYZ
    dof ry rz
    limits (-20.0 10.0)
           (0.0 20.0)
  end
  begin
     id 18 
     name lhumerus
     direction 1 -4.48968e-011 7.8138e-029   
     length 5.06035   
     axis 180 -30 -90   XYZ
    dof rx ry rz
    limits (-60.0 90.0)
           (-90.0 90.0)
           (-90.0 90.0)
  end
  begin
     id 19
     name lradius
     direction 1 -4.48967e-011 9.02887e-028   
     length 3.1478   
     axis 180 -30 -90   XYZ
    dof rx
    limits (-10.0 170.0)
  end
  begin
     id 20
     name lwrist
     direction 1 -4.48961e-011 7.20928e-028   
     length 1.5739   
     axis -5.52449e-016 90 90   XYZ
    dof ry
    limits (-180.0 0.0)
 end
  begin
     id 21 
     name lhand
     direction 1 -4.48972e-011 1.44186e-027   
     length 0.606747   
     axis -9.20027e-016 90 90   XYZ
    dof rx rz
    limits (-90.0 90.0)
           (-45.0 45.0)
  end
  begin
     id 22 
     name lfingers
     direction 1 -4.48943e-011 2.88371e-027   
     length 0.489175   
     axis -1.84005e-015 90 90   XYZ
    dof rx
    limits (0.0 90.0)
  end
  begin
     id 23
     name lthumb
     direction 0.707107 -6.34917e-011 0.707107   
     length 0.70236   
     axis -90 45 2.85299e-015   XYZ
    dof rx rz
    limits (-45.0 45.0)
           (-45.0 45.0)
  end
  begin
     id 24 
     name rclavicle
     direction -0.978165 0.207816 0.0022268   
     length 3.35425  
     axis 0 0 0   XYZ 
    dof ry rz
    limits (-10.0 20.0)
           (-20.0 0.0)
  end
  begin
     id 25 
     name rhumerus
     direction -1 -4.48964e-011 -4.02159e-027  
     length 5.12273   
     axis 180 30 90   XYZ
    dof rx ry rz
    limits (-90.0 60.0)
           (-90.0 90.0)
           (-90.0 90.0)
  end
  begin
     id 26 
     name rradius
     direction -1 -4.48966e-011 1.62746e-027   
     length 3.422   
     axis 180 30 90   XYZ
    dof rx
    limits (-10.0 170.0)
  end
  begin
     id 27 
     name rwrist
     direction -1 -4.4896e-011 7.20928e-028   
     length 1.711   
     axis -5.52449e-016 -90 -90   XYZ
    dof ry
    limits (-180.0 0.0)
  end
  begin
     id 28
     name rhand
     direction -1 -4.48979e-011 1.44186e-027   
     length 0.704599   
     axis -9.20027e-016 -90 -90   XYZ
    dof rx rz
    limits (-90.0 90.0)
           (-45.0 45.0)
  end
  begin
     id 29
     name rfingers
     direction -1 -4.48962e-011 2.88371e-027   
     length 0.568066   
     axis -1.84005e-015 -90 -90   XYZ
    dof rx
    limits (0.0 90.0)
  end
  begin
     id 30
     name rthumb
     direction -0.707107 -6.34949e-011 0.707107   
     length 0.815633   
     axis -90 -45 -2.85299e-015   XYZ
    dof rx rz
    limits (-45.0 45.0)
           (-45.0 45.0)
  end
:hierarchy
  begin
    root lhipjoint rhipjoint lowerback
    lhipjoint lfemur
    lfemur ltibia
    ltibia lfoot
    lfoot ltoes
    rhipjoint rfemur
    rfemur rtibia
    rtibia rfoot
    rfoot rtoes
    lowerback upperback
    upperback thorax
    thorax lowerneck lclavicle rclavicle
    lowerneck upperneck
    upperneck head
    lclavicle lhumerus
    lhumerus lradius
    lradius lwrist
    lwrist lhand lthumb
    lhand lfingers
    rclavicle rhumerus
    rhumerus rradius
    rradius rwrist
    rwrist rhand rthumb
    rhand rfingers
  end

#!OML:ASF E:\id_vita\Project 1\Capture day 1\Session 1\Male1.ASF
:FULLY-SPECIFIED
:DEGREES
114
root -8.01291 27.3766 -0.214318 -140.473 88.6353 -144.383
lowerback -5.43209 -0.748018 -2.15182
upperback 0.65494 -0.867506 0.412345
thorax 3.76221 -0.479957 1.5589
lowerneck -9.96484 0.589106 2.60034
upperneck 16.7826 0.753755 -1.28798
head 6.77327 0.483752 -0.77095
rclavicle -5.6343e-015 3.97569e-015
rhumerus -30.6113 -9.36553 -83.3902
rradius 21.4326
rwrist 4.91379
rhand -18.9518 42.4035
rfingers 7.12502
rthumb 7.3517 12.5512
lclavicle -5.6343e-015 3.97569e-015
lhumerus -23.0833 16.2495 80.0373
lradius 13.567
lwrist -15.4967
lhand -13.2315 42.6177
lfingers 7.12502
lthumb 12.8701 72.2008
rfemur -7.90098 3.12416 18.6172
rtibia 24.4322
rfoot -17.1392 -13.9992
rtoes -8.46515
lfemur -9.85093 0.184319 -16.852
ltibia 25.4461
lfoot -22.6936 1.74763
ltoes -3.43297
115
root -8.01759 27.3756 -0.215977 -128.259 88.938 -132.137
lowerback -5.35093 -0.582306 -2.1249
upperback 0.661089 -0.648901 0.3778
thorax 3.71245 -0.369968 1.52773
lowerneck -10.1036 0.559621 2.61775
upperneck 16.9056 0.700024 -1.24104
head 6.83608 0.463612 -0.763348
rclavicle -1.18028e-015 -9.93923e-016
rhumerus -30.5727 -9.76208 -83.2918
rradius 21.4158
rwrist 5.20148
rhand -18.8451 42.5024
rfingers 7.12502
rthumb 7.45471 12.6537
lclavicle -1.18028e-015 -9.93923e-016
lhumerus -23.0152 15.9401 80.1615
lradius 13.637
lwrist -15.2768
lhand -13.0881 42.8368
lfingers 7.12502
lthumb 13.0083 72.4112
rfemur -7.95919 3.09443 18.5357
rtibia 24.4427
rfoot -17.2104 -13.6704
rtoes -8.72142
lfemur -9.75595 0.0524435 -16.9249
ltibia 25.4413
lfoot -22.7798 2.35446
ltoes -3.41169
116
root -8.01218 27.3762 -0.216337 -142.087 88.7056 -145.996
lowerback -5.44545 -0.671776 -2.14938
upperback 0.682078 -0.763138 0.349179
thorax 3.79234 -0.427934 1.50108
lowerneck -10.1987 0.514706 2.67008
upperneck 17.0364 0.635296 -1.27217
head 6.89384 0.434436 -0.787791
rclavicle 1.85118e-015 2.18663e-015
rhumerus -30.577 -9.86846 -83.2903
rradius 21.4763
rwrist 5.24391
rhand -19.1204 42.3972
rfingers 7.12502
rthumb 7.18897 12.5393
lclavicle 1.85118e-015 2.18663e-015
lhumerus -22.9067 15.3532 80.3805
lradius 13.6854
lwrist -14.8333
lhand -12.8941 43.0109
lfingers 7.12502
lthumb 13.1953 72.5733
rfemur -7.89647 3.03352 18.517
rtibia 24.4393
rfoot -17.1805 -13.9764
rtoes -8.95352
lfemur -9.82733 0.118144 -16.9544
ltibia 25.4324
lfoot -22.6778 2.07842
ltoes -3.97723
117
root -8.01637 27.3796 -0.217349 -121.315 89.1125 -125.322
lowerback -5.48988 -0.500712 -2.14205
upperback 0.639182 -0.535127 0.360798
thorax 3.7632 -0.313844 1.52877
lowerneck -10.1694 0.527586 2.63335
upperneck 17.0473 0.670255 -1.32229
head 6.89282 0.445073 -0.794792
rclavicle -9.19379e-016 -1.98785e-016
rhumerus -30.5453 -9.75652 -83.3069
rradius 21.4777
rwrist 5.2156
rhand -19.2184 42.2258
rfingers 7.12502
rthumb 7.09436 12.3647
lclavicle -9.19379e-016 -1.98785e-016
lhumerus -22.852 15.096 80.5426
lradius 13.7034
lwrist -14.5419
lhand -12.9581 43.1141
lfingers 7.12502
lthumb 13.1336 72.6805
rfemur -8.13303 3.04086 18.4248
rtibia 24.4542
rfoot -17.1659 -13.5191
rtoes -9.39543
lfemur -9.85381 0.0814629 -17.0418
ltibia 25.4198
lfoot -22.7719 2.72822
ltoes -4.49051
118
root -8.01208 27.3778 -0.217513 -143.187 88.753 -147.081
lowerback -5.42538 -0.678538 -2.1832
upperback 0.665296 -0.771091 0.366036
thorax 3.76471 -0.432328 1.53709
lowerneck -10.0593 0.513198 2.6069
upperneck 17.0089 0.660061 -1.32859
head 6.86074 0.438533 -0.793387
rclavicle 8.62228e-015 2.98177e-015
rhumerus -30.5516 -9.80533 -83.2653
rradius 21.4666
rwrist 5.18718
rhand -18.8871 42.149
rfingers 7.12502
rthumb 7.41411 12.299
lclavicle 8.62228e-015 2.98177e-015
lhumerus -22.8398 15.1068 80.607
lradius 13.7207
lwrist -14.5317
lhand -12.9553 43.4735
lfingers 7.12502
lthumb 13.1363 73.0398
rfemur -7.91235 2.99059 18.4786
rtibia 24.4723
rfoot -17.0041 -14.0477
rtoes -9.50694
lfemur -9.77952 0.0715032 -17.0165
ltibia 25.3938
lfoot -22.7064 2.21794
ltoes -4.60635
